<svg width="1008" height="295" viewBox="0 0 1008 295" fill="none" xmlns="http://www.w3.org/2000/svg">
<path d="M0.612557 286.635C1.99439 292.362 7.70853 295.7 13.3754 294.09C19.0424 292.481 22.5161 286.534 21.1343 280.807C19.7524 275.08 14.0383 271.743 8.37138 273.352C2.70446 274.962 -0.769278 280.909 0.612557 286.635ZM1007.87 0.56082L985.008 1.19677L996.291 21.0665L1007.87 0.56082ZM513.22 283.721L513.289 281.702L513.22 283.721ZM575.463 265.945L574.486 264.225L575.463 265.945ZM10.8045 285.741L13.7947 285.741L13.9325 281.702L10.9423 281.702L10.8045 285.741ZM19.775 285.741L25.7553 285.741L25.8931 281.702L19.9128 281.702L19.775 285.741ZM31.7356 285.741L37.7159 285.741L37.8537 281.702L31.8734 281.702L31.7356 285.741ZM43.6962 285.741L49.6766 285.741L49.8144 281.702L43.8341 281.702L43.6962 285.741ZM55.6569 285.741L61.6372 285.741L61.775 281.702L55.7947 281.702L55.6569 285.741ZM67.6175 285.741L73.5978 285.741L73.7356 281.702L67.7553 281.702L67.6175 285.741ZM79.5781 285.741L85.5584 285.741L85.6963 281.702L79.7159 281.702L79.5781 285.741ZM91.5388 285.741L97.5191 285.741L97.6569 281.702L91.6766 281.702L91.5388 285.741ZM103.499 285.741L109.48 285.741L109.618 281.702L103.637 281.702L103.499 285.741ZM115.46 285.741L121.44 285.741L121.578 281.702L115.598 281.702L115.46 285.741ZM127.421 285.741L133.401 285.741L133.539 281.702L127.558 281.702L127.421 285.741ZM139.381 285.741L145.362 285.741L145.499 281.702L139.519 281.702L139.381 285.741ZM151.342 285.741L157.322 285.741L157.46 281.702L151.48 281.702L151.342 285.741ZM163.303 285.741L169.283 285.741L169.421 281.702L163.44 281.702L163.303 285.741ZM175.263 285.741L181.243 285.741L181.381 281.702L175.401 281.702L175.263 285.741ZM187.224 285.741L193.204 285.741L193.342 281.702L187.362 281.702L187.224 285.741ZM199.184 285.741L205.165 285.741L205.303 281.702L199.322 281.702L199.184 285.741ZM211.145 285.741L217.125 285.741L217.263 281.702L211.283 281.702L211.145 285.741ZM223.106 285.741L229.086 285.741L229.224 281.702L223.243 281.702L223.106 285.741ZM235.066 285.741L241.047 285.741L241.184 281.702L235.204 281.702L235.066 285.741ZM247.027 285.741L253.007 285.741L253.145 281.702L247.165 281.702L247.027 285.741ZM258.987 285.741L264.968 285.741L265.106 281.702L259.125 281.702L258.987 285.741ZM270.948 285.741L276.928 285.741L277.066 281.702L271.086 281.702L270.948 285.741ZM282.909 285.741L288.889 285.741L289.027 281.702L283.047 281.702L282.909 285.741ZM294.869 285.741L300.85 285.741L300.987 281.702L295.007 281.702L294.869 285.741ZM306.83 285.741L312.81 285.741L312.948 281.702L306.968 281.702L306.83 285.741ZM318.791 285.741L324.771 285.741L324.909 281.702L318.928 281.702L318.791 285.741ZM330.751 285.741L336.731 285.741L336.869 281.702L330.889 281.702L330.751 285.741ZM342.712 285.741L348.692 285.741L348.83 281.702L342.85 281.702L342.712 285.741ZM354.672 285.741L360.653 285.741L360.791 281.702L354.81 281.702L354.672 285.741ZM366.633 285.741L372.613 285.741L372.751 281.702L366.771 281.702L366.633 285.741ZM378.594 285.741L384.574 285.741L384.712 281.702L378.732 281.702L378.594 285.741ZM390.554 285.741L396.535 285.741L396.672 281.702L390.692 281.702L390.554 285.741ZM402.515 285.741L408.495 285.741L408.633 281.702L402.653 281.702L402.515 285.741ZM414.476 285.741L420.456 285.741L420.594 281.702L414.613 281.702L414.476 285.741ZM426.436 285.741L432.416 285.741L432.554 281.702L426.574 281.702L426.436 285.741ZM438.397 285.741L444.377 285.741L444.515 281.702L438.535 281.702L438.397 285.741ZM450.357 285.741L456.338 285.741L456.476 281.702L450.495 281.702L450.357 285.741ZM462.318 285.741L468.298 285.741L468.436 281.702L462.456 281.702L462.318 285.741ZM474.279 285.741L480.259 285.741L480.397 281.702L474.416 281.702L474.279 285.741ZM486.239 285.741L492.22 285.741L492.357 281.702L486.377 281.702L486.239 285.741ZM498.2 285.741L504.18 285.741L504.318 281.702L498.338 281.702L498.2 285.741ZM510.161 285.741L513.151 285.741L513.289 281.702L510.298 281.702L510.161 285.741ZM513.151 285.741C514.251 285.741 515.351 285.725 516.45 285.694L516.479 281.657C515.416 281.687 514.353 281.702 513.289 281.702L513.151 285.741ZM523.048 285.324C525.248 285.139 527.442 284.892 529.628 284.584L529.221 280.583C527.107 280.881 524.986 281.119 522.859 281.299L523.048 285.324ZM536.171 283.477C538.344 283.047 540.507 282.556 542.657 282.006L541.819 278.09C539.741 278.622 537.649 279.097 535.548 279.513L536.171 283.477ZM549.066 280.176C551.186 279.506 553.291 278.778 555.378 277.992L554.12 274.209C552.102 274.969 550.067 275.673 548.016 276.32L549.066 280.176ZM561.575 275.46C563.617 274.56 565.639 273.603 567.638 272.59L565.975 268.985C564.042 269.966 562.087 270.891 560.112 271.761L561.575 275.46ZM573.548 269.388C574.519 268.828 575.483 268.254 576.441 267.666L574.486 264.225C573.56 264.793 572.628 265.348 571.689 265.89L573.548 269.388ZM576.441 267.666L579.014 266.086L577.06 262.645L574.486 264.225L576.441 267.666ZM584.162 262.927L589.31 259.768L587.356 256.326L582.208 259.486L584.162 262.927ZM594.458 256.608L599.605 253.449L597.651 250.008L592.503 253.167L594.458 256.608ZM604.753 250.29L609.901 247.13L607.946 243.689L602.799 246.848L604.753 250.29ZM615.049 243.971L620.196 240.812L618.242 237.37L613.094 240.53L615.049 243.971ZM625.344 237.652L630.492 234.493L628.537 231.052L623.39 234.211L625.344 237.652ZM635.64 231.334L640.787 228.174L638.833 224.733L633.685 227.892L635.64 231.334ZM645.935 225.015L651.083 221.856L649.128 218.414L643.981 221.574L645.935 225.015ZM656.231 218.696L661.378 215.537L659.424 212.096L654.276 215.255L656.231 218.696ZM666.526 212.378L671.674 209.218L669.719 205.777L664.572 208.936L666.526 212.378ZM676.821 206.059L681.969 202.9L680.015 199.458L674.867 202.617L676.821 206.059ZM687.117 199.74L692.265 196.581L690.31 193.139L685.163 196.299L687.117 199.74ZM697.412 193.422L702.56 190.262L700.606 186.821L695.458 189.98L697.412 193.422ZM707.708 187.103L712.856 183.944L710.901 180.502L705.753 183.661L707.708 187.103ZM718.003 180.784L723.151 177.625L721.197 174.183L716.049 177.343L718.003 180.784ZM728.299 174.466L733.447 171.306L731.492 167.865L726.344 171.024L728.299 174.466ZM738.594 168.147L743.742 164.988L741.788 161.546L736.64 164.705L738.594 168.147ZM748.89 161.828L754.038 158.669L752.083 155.227L746.935 158.387L748.89 161.828ZM759.185 155.51L764.333 152.35L762.379 148.909L757.231 152.068L759.185 155.51ZM769.481 149.191L774.628 146.032L772.674 142.59L767.526 145.749L769.481 149.191ZM779.776 142.872L784.924 139.713L782.97 136.271L777.822 139.431L779.776 142.872ZM790.072 136.554L795.219 133.394L793.265 129.953L788.117 133.112L790.072 136.554ZM800.367 130.235L805.515 127.076L803.561 123.634L798.413 126.793L800.367 130.235ZM810.663 123.916L815.81 120.757L813.856 117.315L808.708 120.475L810.663 123.916ZM820.958 117.597L826.106 114.438L824.152 110.997L819.004 114.156L820.958 117.597ZM831.254 111.279L836.401 108.119L834.447 104.678L829.299 107.837L831.254 111.279ZM841.549 104.96L846.697 101.801L844.743 98.3592L839.595 101.519L841.549 104.96ZM851.845 98.6414L856.992 95.4821L855.038 92.0405L849.89 95.1999L851.845 98.6414ZM862.14 92.3227L867.288 89.1634L865.334 85.7218L860.186 88.8812L862.14 92.3227ZM872.436 86.004L877.583 82.8447L875.629 79.4031L870.481 82.5625L872.436 86.004ZM882.731 79.6853L887.879 76.526L885.925 73.0844L880.777 76.2438L882.731 79.6853ZM893.027 73.3666L898.174 70.2073L896.22 66.7658L891.072 69.9251L893.027 73.3666ZM903.322 67.048L908.47 63.8886L906.516 60.4471L901.368 63.6064L903.322 67.048ZM913.618 60.7292L918.765 57.5699L916.811 54.1283L911.663 57.2877L913.618 60.7292ZM923.913 54.4106L929.061 51.2512L927.107 47.8097L921.959 50.969L923.913 54.4106ZM934.209 48.0919L939.356 44.9325L937.402 41.491L932.254 44.6503L934.209 48.0919ZM944.504 41.7732L949.652 38.6138L947.698 35.1723L942.55 38.3316L944.504 41.7732ZM954.8 35.4545L959.947 32.2951L957.993 28.8536L952.845 32.0129L954.8 35.4545ZM965.095 29.1358L970.243 25.9764L968.289 22.5349L963.141 25.6942L965.095 29.1358ZM975.391 22.8171L980.538 19.6577L978.584 16.2162L973.436 19.3755L975.391 22.8171ZM985.686 16.4984L990.834 13.339L988.88 9.8975L983.732 13.0568L985.686 16.4984ZM995.982 10.1797L1001.13 7.02032L999.175 3.57878L994.027 6.73814L995.982 10.1797Z" fill="black"/>
</svg>
